<?xml version="1.0" encoding="UTF-8" standalone="no"?>
<svg
   viewBox="0 0 640 640"
   version="1.1"
   id="svg866"
   sodipodi:docname="house-chimney-user-solid-full3.svg"
   inkscape:version="1.1.2 (0a00cf5339, 2022-02-04)"
   xmlns:inkscape="http://www.inkscape.org/namespaces/inkscape"
   xmlns:sodipodi="http://sodipodi.sourceforge.net/DTD/sodipodi-0.dtd"
   xmlns:xlink="http://www.w3.org/1999/xlink"
   xmlns="http://www.w3.org/2000/svg"
   xmlns:svg="http://www.w3.org/2000/svg">
  <defs
     id="defs870">
    <linearGradient
       inkscape:collect="always"
       id="linearGradient19919">
      <stop
         style="stop-color:#33ffb5;stop-opacity:1"
         offset="0"
         id="stop19915" />
      <stop
         style="stop-color:#0d85ff;stop-opacity:1"
         offset="1"
         id="stop19917" />
    </linearGradient>
    <linearGradient
       inkscape:collect="always"
       xlink:href="#linearGradient19919"
       id="linearGradient19912"
       gradientUnits="userSpaceOnUse"
       x1="175.69109"
       y1="522.86615"
       x2="530.26923"
       y2="98.126007"
       gradientTransform="translate(2.4438011,-1.7131105)" />
  </defs>
  <sodipodi:namedview
     id="namedview868"
     pagecolor="#ffffff"
     bordercolor="#999999"
     borderopacity="1"
     inkscape:pageshadow="0"
     inkscape:pageopacity="0"
     inkscape:pagecheckerboard="0"
     showgrid="false"
     inkscape:zoom="0.84521357"
     inkscape:cx="405.81459"
     inkscape:cy="499.87366"
     inkscape:window-width="1856"
     inkscape:window-height="1016"
     inkscape:window-x="0"
     inkscape:window-y="0"
     inkscape:window-maximized="1"
     inkscape:current-layer="layer2" />
  <g
     inkscape:groupmode="layer"
     id="layer2"
     inkscape:label="Layer 2">
    <rect
       style="fill:#ffffff;fill-opacity:1;stroke:none;stroke-width:1.00157;stroke-miterlimit:4;stroke-dasharray:none"
       id="rect20780"
       width="277.89755"
       height="317.87915"
       x="186.85182"
       y="236.0766" />
  </g>
  <!--!Font Awesome Free 7.1.0 by @fontawesome - https://fontawesome.com License - https://fontawesome.com/license/free Copyright 2026 Fonticons, Inc.-->
  <path
     d="m 300.6438,70.886886 c 12.3,-11.4 31.3,-11.4 43.50003,0 l 90.3,83.699994 v -12.3 c 0,-17.7 14.3,-32 32,-32 h 32 c 17.7,0 32,14.3 32,32 v 101.5 l 37.8,35.1 c 9.6,9 12.8,22.9 8,35.1 -4.8,12.2 -16.6,20.3 -29.8,20.3 h -16 v 176 c 0,35.3 -28.7,64 -64,64 H 178.4438 c -35.3,0 -64,-28.7 -64,-64 v -176 H 98.443801 c -13.2,0 -25,-8.1 -29.8,-20.3 -4.8,-12.2 -1.6,-26.2 8,-35.1 z m 77.80003,247.399994 c 0,-30.9 -25.1,-56 -56.00003,-56 -30.9,0 -56,25.1 -56,56 0,30.9 25.1,56 56,56 30.90003,0 56.00003,-25.1 56.00003,-56 z m -168.00003,176 c 0,8.8 7.2,16 16,16 h 192.00003 c 8.8,0 16,-7.2 16,-16 0,-44.2 -35.8,-80 -80,-80 H 290.4438 c -44.2,0 -80,35.8 -80,80 z"
     id="path864-5"
     style="fill:url(#linearGradient19912);fill-opacity:1;stroke:none;stroke-width:1.00157;stroke-miterlimit:4;stroke-dasharray:none;stroke-opacity:1" />
  <g
     inkscape:groupmode="layer"
     id="layer1"
     inkscape:label="Layer 1" />
</svg>
